<?xml version="1.0" encoding="UTF-8"?>
<svg width="960px" height="960px" viewBox="0 0 960 960" version="1.1" xmlns="http://www.w3.org/2000/svg" xmlns:xlink="http://www.w3.org/1999/xlink">
    <title>dev.martijn.easycontrol/drivers/ct200/assets/icon</title>
    <g id="dev.martijn.easycontrol/drivers/ct200/assets/icon" stroke="none" fill="none" fill-rule="nonzero">
        <path d="M323.068175,2.57946562 L677.068175,42.8846448 C722.035383,48.0044509 756,86.0555961 756,131.313327 L756,814.693767 C756,863.28811 720.042189,904.383573 671.878012,910.835104 L323.683145,957.475372 C319.810376,957.994124 315.907357,958.254365 312,958.254365 C263.398942,958.254365 224,918.855422 224,870.255207 L224,843.763213 L223.914454,843.685583 C212.417157,833.040682 205.511314,818.129451 205.027236,802.186441 L205.008,801.385694 L205,800.797435 L205,446.730757 C205,429.48092 211.842233,413.141566 223.6995,401.108181 L224,400.806213 L224,91.0081479 C224,88.6053784 224.097303,86.2038165 224.291616,83.8093617 L224.414681,82.42462 L224.54994,81.1277366 L224.571318,80.9399731 C230.131817,32.1021604 274.230362,-2.98103379 323.068175,2.57946562 Z M264.477511,85.4652613 C264.267833,87.306198 264.162741,89.1575456 264.162741,91.0103847 L264.162741,870.251741 C264.162741,896.761409 285.653073,918.251741 312.162741,918.251741 L312.942253,918.251741 C314.758532,918.209454 316.571575,918.070708 318.372625,917.829459 L666.567492,871.189192 C694.712107,867.419256 715.763793,843.518271 716,815.171722 L716,131.311545 C716,128.570739 715.773748,125.877937 715.338069,123.251989 L715.214022,122.53902 C711.424862,101.62935 694.329512,85.1083901 672.543152,82.6278728 L318.543152,42.3226936 C316.942019,42.1403943 315.350138,42.0374418 313.771438,42.0061471 C288.907864,41.6719273 267.351273,60.2341226 264.477511,85.4652613 Z M474.605903,784.777445 C475.47975,774.784221 482.485789,767.234366 490.254328,767.914372 C498.022866,768.594379 503.612118,777.246742 502.738271,787.239966 C501.864423,797.23319 494.858385,804.783045 487.089846,804.103039 C479.321307,803.423032 473.732056,794.77067 474.605903,784.777445 Z M518.982777,779.732042 C519.856624,769.738818 526.862662,762.188963 534.631201,762.868969 C542.39974,763.548976 547.988992,772.201339 547.115144,782.194563 C546.241297,792.187787 539.235259,799.737642 531.46672,799.057636 C523.698181,798.37763 518.108929,789.725267 518.982777,779.732042 Z M508.375281,329.799927 L510.467828,329.816086 C580.373659,331.03692 632.552476,400.082871 631.140483,481.017198 C629.728485,561.951878 575.172442,629.13453 505.266103,627.913687 C435.360272,626.692853 383.181455,557.646902 384.593448,476.712575 C385.977206,397.396588 438.400505,331.28805 506.292171,329.824482 L508.375281,329.799927 Z M426.486207,513.938873 C421.671728,515.566274 419.088091,520.788449 420.715492,525.602928 C429.389766,551.264776 445.155224,572.366872 465.215964,584.890041 C469.526996,587.581257 475.20344,586.268137 477.894656,581.957105 C480.585872,577.646073 479.272752,571.969629 474.96172,569.278413 C458.674232,559.110744 445.514855,541.496892 438.150263,519.709589 C436.522862,514.89511 431.300686,512.311472 426.486207,513.938873 Z M450.839489,384.532563 C447.169793,388.048381 447.045051,393.873391 450.560869,397.543086 C454.076687,401.212782 459.901697,401.337524 463.571392,397.821706 C477.059825,384.89887 493.216565,378.033572 509.984673,378.32641 C541.258567,378.872577 569.109848,404.57192 580.031178,442.981269 C581.421125,447.869591 586.510668,450.705583 591.398989,449.315636 C596.287311,447.925689 599.123304,442.836146 597.733356,437.947824 C584.752214,392.294297 550.43228,360.626103 510.306029,359.925339 C488.481713,359.544199 467.708088,368.371297 450.839489,384.532563 Z" id="Shape" fill="#000000"></path>
    </g>
</svg>