<?xml version="1.0" encoding="UTF-8" standalone="no"?>
<!-- Created with Inkscape (http://www.inkscape.org/) -->

<svg
   version="1.1"
   id="svg1"
   width="807.01471"
   height="1017.0147"
   viewBox="0 0 807.0147 1017.0147"
   xmlns="http://www.w3.org/2000/svg"
   xmlns:svg="http://www.w3.org/2000/svg">
  <defs
     id="defs1" />
  <g
     id="g1">
    <rect
       style="fill:none;fill-opacity:1;stroke:#000000;stroke-width:32;stroke-linejoin:round;stroke-dasharray:none;stroke-opacity:1"
       id="rect1"
       width="775.01471"
       height="985.01465"
       x="16"
       y="16"
       rx="32"
       ry="32" />
    <path
       id="path17"
       style="stroke-linecap:round"
       d="m 413.69531,317.03516 a 5.7144499,5.7144499 0 0 0 -5.71484,5.71484 5.7144499,5.7144499 0 0 0 5.71484,5.71289 c 86.30318,0 166.68946,81.36445 166.68946,167.27539 a 5.7144499,5.7144499 0 0 0 5.71484,5.71484 5.7144499,5.7144499 0 0 0 5.71484,-5.71484 c 0,-92.94493 -84.72966,-178.70312 -178.11914,-178.70312 z m 2.01563,143.33203 c -2.50054,0 -6.2936,0.4125 -8.42969,0.91601 -2.13609,0.50352 -5.54321,1.79587 -7.57031,2.8711 -2.02716,1.07523 -5.18926,3.45629 -7.02735,5.29101 -1.83802,1.83474 -4.34088,5.24333 -5.56054,7.57617 -1.21965,2.33283 -2.78258,6.15054 -3.47266,8.48438 -0.69003,2.33383 -1.53231,6.55566 -1.87305,9.38086 -0.34074,2.82519 -0.61914,7.19681 -0.61914,9.71484 0,2.51803 0.28351,6.88965 0.62891,9.71485 0.3454,2.82519 1.1771,7.17075 1.84961,9.65625 0.67256,2.48552 2.22176,6.42137 3.44336,8.74609 1.22165,2.32472 3.65921,5.77824 5.41601,7.67578 1.99625,2.15618 4.77006,4.28092 7.39844,5.66211 2.31316,1.21551 5.93202,2.58518 8.04102,3.04688 2.10899,0.46171 5.66236,0.86888 7.89648,0.90234 2.23405,0.0335 5.50858,-0.24094 7.27539,-0.60938 1.7668,-0.36844 4.98522,-1.50447 7.15235,-2.52343 2.63711,-1.23993 5.25428,-3.17265 7.91406,-5.84571 2.1858,-2.19669 4.7328,-5.35837 5.66015,-7.02539 0.92741,-1.66702 2.45919,-5.34965 3.4043,-8.18359 0.94511,-2.83394 2.05157,-7.85812 2.45899,-11.16406 0.43949,-3.56546 0.59639,-8.86779 0.38671,-13.03321 -0.19447,-3.86226 -0.80106,-9.20386 -1.3496,-11.87109 -0.54848,-2.66724 -1.79557,-6.75992 -2.76954,-9.09375 -0.97396,-2.33384 -2.99212,-5.86927 -4.48632,-7.85742 -1.49426,-1.98815 -3.87958,-4.5389 -5.30079,-5.66797 -1.42127,-1.12906 -3.87581,-2.70905 -5.45312,-3.51172 -1.57731,-0.80267 -4.57783,-1.86267 -6.66797,-2.35547 -2.09014,-0.4928 -5.84517,-0.89648 -8.3457,-0.89648 z m 41.25,0 c -2.04838,0 -3.82549,0.73811 -5.33399,2.21484 -1.50849,1.46086 -2.26367,3.31942 -2.26367,5.57422 0,1.84195 0.70788,3.54153 2.1211,5.09766 1.42909,1.54025 3.26302,2.31054 5.50195,2.31054 2.08012,0 3.85724,-0.74006 5.33398,-2.21679 1.49262,-1.49262 2.24024,-3.2868 2.24024,-5.38282 0,-2.09601 -0.74007,-3.88264 -2.2168,-5.35937 -1.47674,-1.49261 -3.27093,-2.23828 -5.38281,-2.23828 z m 25.42968,0 c -1.88913,0 -4.47393,0.3128 -5.74414,0.69336 -1.27021,0.38056 -3.28922,1.49758 -4.48632,2.48437 -1.19717,0.9868 -2.90885,3.19938 -3.80274,4.91602 -1.41127,2.71025 -1.62305,3.83872 -1.62304,8.57617 0,4.74435 0.21215,5.86504 1.63281,8.59375 0.8985,1.72582 2.69918,4.03318 4.00195,5.12695 1.30282,1.09376 3.28504,2.32082 4.40625,2.72657 1.12121,0.40575 3.53933,0.75342 5.37305,0.77148 2.12154,0.0208 4.32674,-0.41814 6.0625,-1.20508 1.50032,-0.68018 3.36858,-1.83304 4.15039,-2.5625 0.78186,-0.72947 1.80504,-2.06453 2.27344,-2.96484 0.46846,-0.9003 0.84961,-2.45018 0.84961,-3.44727 0,-0.9971 -0.27908,-1.98591 -0.6211,-2.19726 -0.34195,-0.21136 -2.04724,-0.51451 -3.78906,-0.67188 -3.12152,-0.28202 -3.18949,-0.2515 -4.76953,2.08594 -0.93026,1.37616 -2.29232,2.5438 -3.2461,2.7832 -1.08787,0.27304 -2.15233,0.0791 -3.14648,-0.57226 -0.82618,-0.54131 -2.01692,-2.12074 -2.64844,-3.51172 -0.63153,-1.39098 -1.15483,-3.49421 -1.16211,-4.67383 -0.007,-1.17963 0.59945,-3.35923 1.34961,-4.84375 0.75016,-1.48451 2.11439,-3.11007 3.03125,-3.61328 1.48692,-0.8159 1.84713,-0.81631 3.33399,0.002 0.91687,0.50478 2.18225,1.96987 2.8125,3.25586 1.14582,2.33816 1.14542,2.33877 4.47656,1.94727 1.83208,-0.21533 3.56717,-0.53864 3.85547,-0.7168 0.28825,-0.17817 0.52343,-1.27565 0.52344,-2.43945 0,-1.16379 -0.38318,-2.85165 -0.85352,-3.75196 -0.47035,-0.90031 -1.62954,-2.37425 -2.57617,-3.27343 -0.94663,-0.89918 -2.73501,-2.05839 -3.97461,-2.57618 -1.23954,-0.51781 -3.80038,-0.9414 -5.68946,-0.9414 z m -139.99804,0.10156 c -2.61862,-0.0185 -4.87959,0.21173 -7.24805,0.7168 -2.46919,0.52655 -6.22976,1.77191 -8.35742,2.76757 -2.23115,1.04409 -5.40536,3.27543 -7.49805,5.27149 -2.30898,2.20241 -4.32335,4.87037 -5.53906,7.33984 -1.70485,3.46308 -1.91641,4.48038 -1.95703,9.44336 l -0.0449,5.56055 10.4414,0.16602 c 10.43428,0.16568 10.44198,0.16431 10.72071,-1.2129 0.15343,-0.758 0.42781,-2.46327 0.60742,-3.78906 0.17955,-1.3258 0.8349,-3.09812 1.45703,-3.93945 0.62213,-0.84133 1.92432,-1.92403 2.89453,-2.40625 0.9702,-0.48221 3.17315,-0.86078 4.89648,-0.8418 1.92339,0.0211 3.88917,0.47658 5.08985,1.17969 1.07581,0.62996 2.5046,1.87946 3.17383,2.77734 0.75471,1.01257 1.23087,2.62482 1.2539,4.24414 0.0206,1.43595 -0.44459,3.59677 -1.0332,4.80274 -0.58861,1.20597 -2.51746,3.94832 -4.28711,6.09375 -1.76965,2.14541 -9.87175,9.92072 -18.00391,17.27734 -8.13223,7.35661 -15.23984,13.88788 -15.79687,14.51563 -0.73882,0.83257 -1.12948,2.89099 -1.44336,7.60547 -0.23666,3.55468 -0.25445,7.17114 -0.0371,8.0371 0.39518,1.57448 0.39685,1.57501 31.45117,1.41797 l 31.05274,-0.1582 v -8.78906 -8.79102 l -15.35547,-0.30273 -15.35547,-0.30274 8.83789,-7.80468 c 4.86085,-4.29293 10.58657,-9.6575 12.72266,-11.92188 2.42197,-2.56745 4.70063,-5.7907 6.05468,-8.5625 1.3444,-2.75201 2.4228,-6.11871 2.83204,-8.83984 0.48102,-3.19704 0.47737,-5.58094 -0.0137,-8.7461 -0.37129,-2.39308 -1.35715,-5.7063 -2.18945,-7.36328 -0.83224,-1.65697 -2.3261,-4.03966 -3.32031,-5.29492 -0.99421,-1.25527 -3.34505,-3.30318 -5.22461,-4.55078 -1.87961,-1.24761 -5.46365,-2.91861 -7.96485,-3.71289 -2.66614,-0.84664 -6.83006,-1.58485 -10.0625,-1.78516 -0.9696,-0.0601 -1.88103,-0.0954 -2.7539,-0.10156 z m 114.56836,3.85156 c 1.00036,0 1.85771,0.35772 2.57226,1.07227 0.71455,0.71455 1.07227,1.5719 1.07227,2.57226 0,1.00037 -0.35772,1.85772 -1.07227,2.57227 -0.71455,0.71455 -1.5719,1.07227 -2.57226,1.07227 -0.9845,0 -1.84184,-0.34821 -2.57227,-1.04688 -0.71454,-0.71455 -1.07031,-1.61165 -1.07031,-2.69141 0,-0.87334 0.34065,-1.68338 1.02344,-2.42968 0.69867,-0.74631 1.57113,-1.1211 2.61914,-1.1211 z m -41.25586,14.21485 c 1.88416,0 4.00656,0.47004 5.45117,1.20703 1.30101,0.66373 3.07168,2.13634 3.9375,3.27148 0.86582,1.13513 2.09863,3.55301 2.73828,5.37305 0.63971,1.82003 1.46642,6.34844 1.83789,10.06445 0.4892,4.89315 0.49537,8.55398 0.0215,13.27344 -0.35971,3.5841 -0.95389,7.60779 -1.32227,8.94141 -0.36839,1.33362 -1.16086,3.37996 -1.75976,4.54687 -0.59898,1.16692 -1.86313,2.85435 -2.81055,3.75 -0.94735,0.89566 -2.49113,1.91882 -3.42969,2.27344 -0.93856,0.35461 -3.12088,0.63219 -4.84961,0.61914 -1.72867,-0.013 -3.96073,-0.38948 -4.96094,-0.83594 -1.00022,-0.44645 -2.55414,-1.59331 -3.45312,-2.55078 -0.89898,-0.95746 -2.17511,-2.96843 -2.83399,-4.46875 -0.65887,-1.50032 -1.53008,-4.50084 -1.9375,-6.66797 -0.40743,-2.16713 -0.73536,-7.8961 -0.72851,-12.73047 0.008,-5.95121 0.32957,-10.11538 0.99219,-12.89453 0.53824,-2.25759 1.49919,-5.12208 2.13672,-6.36523 0.63753,-1.24316 1.79938,-2.84158 2.58203,-3.55274 0.78259,-0.71116 2.29627,-1.73434 3.36328,-2.27344 1.06702,-0.5391 3.32848,-0.98046 5.02539,-0.98046 z m -86.39844,180.02343 a 10.919044,10.919044 0 0 0 -10.91992,10.91993 10.919044,10.919044 0 0 0 10.91992,10.91796 10.919044,10.919044 0 0 0 10.91797,-10.91796 10.919044,10.919044 0 0 0 -10.91797,-10.91993 z m 29.67969,0 a 10.919044,10.919044 0 0 0 -10.91797,10.91993 10.919044,10.919044 0 0 0 10.91797,10.91796 10.919044,10.919044 0 0 0 10.91992,-10.91796 10.919044,10.919044 0 0 0 -10.91992,-10.91993 z m 29.68164,0 a 10.919044,10.919044 0 0 0 -10.91992,10.91993 10.919044,10.919044 0 0 0 10.91992,10.91796 10.919044,10.919044 0 0 0 10.91797,-10.91796 10.919044,10.919044 0 0 0 -10.91797,-10.91993 z m 29.67969,0 a 10.919044,10.919044 0 0 0 -10.91993,10.91993 10.919044,10.919044 0 0 0 10.91993,10.91796 10.919044,10.919044 0 0 0 10.91992,-10.91796 10.919044,10.919044 0 0 0 -10.91992,-10.91993 z m 29.67968,0 a 10.919044,10.919044 0 0 0 -10.91796,10.91993 10.919044,10.919044 0 0 0 10.91796,10.91796 10.919044,10.919044 0 0 0 10.91993,-10.91796 10.919044,10.919044 0 0 0 -10.91993,-10.91993 z m 29.68164,0 a 10.919044,10.919044 0 0 0 -10.91992,10.91993 10.919044,10.919044 0 0 0 10.91992,10.91796 10.919044,10.919044 0 0 0 10.91797,-10.91796 10.919044,10.919044 0 0 0 -10.91797,-10.91993 z M 612.52382,505.18777 A 209.01647,209.01647 0 0 1 403.50735,714.20424 209.01647,209.01647 0 0 1 194.49089,505.18777 209.01647,209.01647 0 0 1 403.50735,296.17131 209.01647,209.01647 0 0 1 612.52382,505.18777 Z" />
    <g
       id="g3"
       transform="translate(-678.30026,-266.95421)">
      <circle
         style="fill:#000000;fill-opacity:1;fill-rule:evenodd"
         id="path3"
         cx="1026.7743"
         cy="1172.913"
         r="36.288372" />
      <circle
         style="fill:#000000;fill-opacity:1;fill-rule:evenodd"
         id="path3-2"
         cx="1136.8409"
         cy="1172.913"
         r="36.288372" />
    </g>
  </g>
</svg>
