<svg xmlns="http://www.w3.org/2000/svg" width="96" height="96" viewBox="0 0 24 24">
    <g transform="translate(0.8 1) scale(0.88)">
        <path fill="white" fill-rule="evenodd" d="m11.202.42.1.084 8.465 7.6c.28.252.312.693.072.985a.656.656 0 0 1-.425.24l-.08.004H18v8.103c0 .78-.071 1.125-.206 1.418l-.061.123c-.174.326-.43.582-.756.756l-.123.061c-.293.135-.638.206-1.418.206h-2.77v-6.29c0-.595-.061-.81-.177-1.028a1.212 1.212 0 0 0-.504-.504c-.218-.116-.433-.178-1.028-.178H9.043c-.595 0-.81.062-1.028.178a1.212 1.212 0 0 0-.504.504c-.116.217-.178.433-.178 1.027V20h-2.77c-.78 0-1.124-.071-1.417-.206l-.123-.061a1.817 1.817 0 0 1-.756-.756l-.061-.123c-.125-.272-.196-.589-.205-1.257L2 9.333H.667A.653.653 0 0 1 .16 9.09a.723.723 0 0 1 .012-.923l.06-.061 8.465-7.6A1.93 1.93 0 0 1 11.202.42Z M18 10.95 H16.25 c-.75 0-1.35.60-1.35 1.35 v.20 c0 .75.60 1.35 1.35 1.35 H18 Z"/>
    </g>

    <path fill="white" d="M15 11.15 H18.25 V10.6 Q18.25 10.25 18.45 10.1 Q18.75 9.9 19.05 10.2 L20.45 11.6 Q20.75 11.9 20.45 12.2 L19.05 13.6 Q18.75 13.9 18.45 13.7 Q18.25 13.55 18.25 13.2 V12.65 H15 Q14.3 12.65 14.3 11.9 Q14.3 11.15 15 11.15 Z"/>
</svg>
